<?xml version="1.0" standalone="no"?>
<!DOCTYPE svg PUBLIC "-//W3C//DTD SVG 20010904//EN"
 "http://www.w3.org/TR/2001/REC-SVG-20010904/DTD/svg10.dtd">
<svg version="1.0" xmlns="http://www.w3.org/2000/svg"
 width="700.000000pt" height="700.000000pt" viewBox="0 0 700.000000 700.000000"
 preserveAspectRatio="xMidYMid meet">
<metadata>
Created by potrace 1.14, written by Peter Selinger 2001-2017
</metadata>
<g transform="translate(0.000000,700.000000) scale(0.100000,-0.100000)"
fill="#000000" stroke="none">
<path d="M958 5120 c0 -3 -2 -746 -3 -1652 -1 -1479 1 -1647 15 -1650 28 -6
1534 -1 1620 6 221 17 436 63 573 123 272 118 449 331 492 591 3 17 8 47 11
65 21 115 6 335 -31 462 -67 228 -249 423 -469 499 l-64 23 41 18 c137 60 263
176 321 298 59 123 71 181 70 362 0 161 -11 226 -56 345 -62 165 -206 305
-398 386 -86 36 -289 89 -385 100 -33 3 -69 8 -79 10 -70 13 -299 17 -934 18
-397 1 -723 -1 -724 -4z m1457 -590 c167 -38 257 -139 271 -302 9 -114 -22
-214 -88 -280 -88 -88 -145 -100 -500 -102 -159 -1 -288 0 -289 3 0 3 -1 158
-2 344 -2 256 1 340 10 346 21 11 544 4 598 -9z m2 -1274 c136 -16 229 -54
297 -121 75 -75 108 -172 107 -310 -1 -151 -48 -256 -146 -331 -64 -48 -143
-76 -255 -90 -64 -8 -610 -11 -611 -4 -5 31 -2 861 3 863 16 5 555 -1 605 -7z"/>
<path d="M4414 5119 c-2 -4 -4 -699 -4 -1545 -1 -1703 2 -1618 -66 -1760 -52
-111 -141 -189 -256 -228 -73 -24 -104 -28 -226 -31 -61 -1 -115 -4 -118 -7
-4 -5 -7 -386 -4 -602 l0 -38 213 5 c116 3 226 8 242 10 17 3 53 8 80 11 27 4
57 8 65 11 8 2 26 6 40 9 95 16 244 68 340 118 202 105 358 278 444 492 26 65
61 188 71 251 3 17 7 41 10 55 15 86 17 303 17 1655 -1 825 -1 1523 -1 1550
l-1 50 -421 0 c-231 0 -423 -3 -425 -6z"/>
</g>
</svg>
